<svg width="10" height="18" viewBox="0 0 10 18" fill="none" xmlns="http://www.w3.org/2000/svg">
<path fill-rule="evenodd" clip-rule="evenodd" d="M5.02248 10.3823C4.25223 10.3791 3.62604 11.0589 3.6231 11.9007C3.62016 12.7367 4.23459 13.4191 5.00013 13.43H5.01248C5.78273 13.4326 6.40892 12.7527 6.41186 11.9116C6.41421 11.0699 5.79213 10.3855 5.02248 10.3823ZM5.00013 15.5094H4.98661C3.15919 15.5042 1.68102 13.8811 1.68631 11.8833C1.68749 9.88367 3.17212 8.2631 5.0019 8.26374C6.83285 8.26439 8.3169 9.88688 8.31631 11.8878C8.31572 13.8888 6.83108 15.51 5.00013 15.5094ZM9.96793 11.2735C9.94735 11.0763 9.91736 10.8803 9.87856 10.6862C9.76155 10.1143 9.56046 9.56752 9.28294 9.06631C9.25824 9.02326 9.24648 8.97314 9.24766 8.92238V4.71932C9.24766 4.55225 9.24178 4.38646 9.22884 4.22004C9.21356 4.0112 9.18416 3.80365 9.14006 3.59867C8.72083 1.61634 7.16858 0.16284 5.31176 0.0144056C5.15301 -0.00230129 4.99308 -0.00422901 4.83432 0.00733729C4.70556 0.0189036 4.5762 0.0266144 4.44744 0.0439639C4.27986 0.067739 4.11347 0.10308 3.94942 0.149988C2.41187 0.585009 1.22416 1.92156 0.871966 3.61474C0.810228 3.90004 0.776714 4.19241 0.77201 4.48542V5.18968C0.77201 5.26358 0.772598 5.26358 0.842567 5.26358H2.41305C2.44832 5.26165 2.45362 5.25843 2.45362 5.22181V4.60815C2.45538 4.40381 2.47772 4.20012 2.52123 4.00156C2.78994 2.76269 3.78949 1.87786 4.95427 1.84831C5.02836 1.84509 5.10244 1.85666 5.17711 1.85666C5.33116 1.86244 5.48404 1.88686 5.63279 1.93055C6.24546 2.09377 6.77993 2.5018 7.13154 3.07433C7.40965 3.50807 7.56135 4.02405 7.56664 4.55353C7.57193 5.40944 7.56664 6.2647 7.56664 7.12125C7.56605 7.1386 7.56252 7.15723 7.56252 7.18486C7.53371 7.17137 7.51431 7.16109 7.49726 7.15017C7.11625 6.90984 6.70761 6.72543 6.28192 6.60334C6.03673 6.53201 5.78625 6.48189 5.53401 6.45426C5.36879 6.4337 5.20298 6.42342 5.03718 6.42277C4.94192 6.42406 4.84844 6.42792 4.75142 6.43177C4.67204 6.43563 4.59208 6.43627 4.51329 6.44719C4.35748 6.47097 4.20225 6.49282 4.04761 6.52366C3.55019 6.62518 3.07099 6.81217 2.62766 7.07756C1.74334 7.59675 1.02425 8.39611 0.563279 9.37025C0.346317 9.82134 0.190504 10.3046 0.0999556 10.8045C0.0582094 11.0249 0.0305747 11.2478 0.0164633 11.4727C0.00940759 11.6025 0 11.733 0 11.8634C0 12.0087 0.00881961 12.1545 0.0164633 12.2997C0.0282228 12.5073 0.0529177 12.7142 0.0899601 12.9179C0.1711 13.3908 0.31045 13.849 0.503894 14.2814C1.16595 15.7619 2.40305 16.8382 3.87181 17.2116C4.05996 17.261 4.25047 17.2964 4.44332 17.3169C4.55033 17.3279 4.65617 17.3478 4.76318 17.3478C5.02777 17.3613 5.29294 17.3504 5.55636 17.3163C5.70335 17.2957 5.85093 17.2745 5.99616 17.243C6.34013 17.1679 6.67586 17.0516 6.99748 16.8967C8.74671 16.062 9.90913 14.2133 9.99497 12.1295C10.0067 11.8435 9.99791 11.5576 9.96793 11.2735Z" fill="#F58021"/>
</svg>
